<svg width="64" height="64" viewBox="0 0 64 64" fill="none" xmlns="http://www.w3.org/2000/svg">
<circle cx="32" cy="32" r="32" fill="#FF7171"/>
<path d="M42.7147 15.0166C42.7147 14.7501 42.6088 14.4946 42.4204 14.3062C42.232 14.1177 41.9764 14.0119 41.71 14.0119H36.6864C34.1567 13.8859 31.68 14.7662 29.7974 16.4605C27.9148 18.1549 26.7794 20.5255 26.6392 23.0544V28.4799H21.6156C21.3491 28.4799 21.0935 28.5857 20.9051 28.7741C20.7167 28.9626 20.6108 29.2181 20.6108 29.4846V34.7091C20.6108 34.9756 20.7167 35.2311 20.9051 35.4196C21.0935 35.608 21.3491 35.7138 21.6156 35.7138H26.6392V49.1771C26.6392 49.4436 26.745 49.6991 26.9334 49.8875C27.1219 50.076 27.3774 50.1818 27.6439 50.1818H33.6722C33.9387 50.1818 34.1942 50.076 34.3827 49.8875C34.5711 49.6991 34.6769 49.4436 34.6769 49.1771V35.7138H39.9417C40.1651 35.7171 40.3832 35.6457 40.5615 35.511C40.7399 35.3764 40.8682 35.1861 40.9263 34.9704L42.3731 29.7458C42.4131 29.5974 42.4184 29.4417 42.3888 29.2908C42.3592 29.14 42.2953 28.9979 42.2021 28.8757C42.1089 28.7534 41.9889 28.6541 41.8514 28.5855C41.7138 28.5169 41.5623 28.4807 41.4086 28.4799H34.6769V23.0544C34.7269 22.557 34.9605 22.0961 35.3321 21.7617C35.7036 21.4273 36.1865 21.2434 36.6864 21.2459H41.71C41.9764 21.2459 42.232 21.14 42.4204 20.9516C42.6088 20.7632 42.7147 20.5076 42.7147 20.2411V15.0166Z" fill="white"/>
</svg>
