<svg width="31" height="32" viewBox="0 0 31 32" fill="none" xmlns="http://www.w3.org/2000/svg">
<path d="M1.31921 5.65234H25.6942C26.163 5.65234 26.6317 5.07812 26.6317 4.33984V1.71484C26.6317 1.05859 26.163 0.402344 25.6942 0.402344H1.31921C0.79187 0.402344 0.381714 1.05859 0.381714 1.71484V4.33984C0.381714 5.07812 0.79187 5.65234 1.31921 5.65234ZM29.4442 13.5273H5.06921C4.54187 13.5273 4.13171 14.1836 4.13171 14.8398V17.4648C4.13171 18.2031 4.54187 18.7773 5.06921 18.7773H29.4442C29.913 18.7773 30.3817 18.2031 30.3817 17.4648V14.8398C30.3817 14.1836 29.913 13.5273 29.4442 13.5273ZM25.6942 26.6523H1.31921C0.79187 26.6523 0.381714 27.3086 0.381714 27.9648V30.5898C0.381714 31.3281 0.79187 31.9023 1.31921 31.9023H25.6942C26.163 31.9023 26.6317 31.3281 26.6317 30.5898V27.9648C26.6317 27.3086 26.163 26.6523 25.6942 26.6523Z" fill="url(#paint0_linear_9_2)"/>
<defs>
<linearGradient id="paint0_linear_9_2" x1="30.3817" y1="31.9023" x2="-5.20696" y2="24.1" gradientUnits="userSpaceOnUse">
<stop stop-color="#FFB7B7"/>
<stop offset="1" stop-color="#FF7272"/>
</linearGradient>
</defs>
</svg>
