<svg width="64" height="64" viewBox="0 0 64 64" fill="none" xmlns="http://www.w3.org/2000/svg">
<circle cx="32" cy="32" r="32" fill="#FF7171"/>
<path d="M47.8969 25.4641C47.879 24.1183 47.6271 22.7858 47.1524 21.5263C46.7407 20.4639 46.112 19.4991 45.3064 18.6935C44.5008 17.8878 43.5359 17.2591 42.4736 16.8475C41.2303 16.3808 39.9168 16.1284 38.5891 16.1012C36.8796 16.0247 36.3376 16.0034 31.9982 16.0034C27.6588 16.0034 27.1026 16.0034 25.4056 16.1012C24.0785 16.1286 22.7656 16.381 21.5229 16.8475C20.4603 17.2588 19.4954 17.8875 18.6897 18.6931C17.884 19.4988 17.2554 20.4638 16.8441 21.5263C16.3764 22.7686 16.1246 24.0818 16.0995 25.409C16.0231 27.1203 16 27.6622 16 32.0016C16 36.341 16 36.8955 16.0995 38.5943C16.1262 39.9235 16.3767 41.2349 16.8441 42.4805C17.2561 43.5427 17.8852 44.5073 18.6911 45.3127C19.4971 46.118 20.4621 46.7463 21.5247 47.1576C22.764 47.643 24.0771 47.9135 25.4074 47.9572C27.1186 48.0336 27.6606 48.0567 32 48.0567C36.3394 48.0567 36.8956 48.0567 38.5926 47.9572C39.9203 47.9311 41.2339 47.6793 42.4771 47.2127C43.5392 46.8005 44.5038 46.1717 45.3094 45.3661C46.1149 44.5605 46.7438 43.5959 47.1559 42.5338C47.6233 41.29 47.8738 39.9785 47.9005 38.6476C47.9769 36.9381 48 36.3961 48 32.0549C47.9964 27.7155 47.9964 27.1647 47.8969 25.4641V25.4641ZM31.9876 40.2078C27.4491 40.2078 23.7725 36.5312 23.7725 31.9928C23.7725 27.4543 27.4491 23.7777 31.9876 23.7777C34.1663 23.7777 36.2558 24.6432 37.7965 26.1839C39.3371 27.7245 40.2026 29.814 40.2026 31.9928C40.2026 34.1715 39.3371 36.261 37.7965 37.8016C36.2558 39.3423 34.1663 40.2078 31.9876 40.2078V40.2078ZM40.5295 25.3895C40.2779 25.3897 40.0287 25.3403 39.7962 25.2441C39.5637 25.1479 39.3524 25.0069 39.1745 24.8289C38.9966 24.651 38.8555 24.4397 38.7593 24.2072C38.6631 23.9747 38.6137 23.7255 38.6139 23.4739C38.6139 23.2224 38.6635 22.9735 38.7597 22.7411C38.8559 22.5088 38.997 22.2978 39.1748 22.12C39.3526 21.9422 39.5636 21.8011 39.7959 21.7049C40.0282 21.6087 40.2772 21.5592 40.5287 21.5592C40.7801 21.5592 41.0291 21.6087 41.2614 21.7049C41.4937 21.8011 41.7048 21.9422 41.8826 22.12C42.0604 22.2978 42.2014 22.5088 42.2976 22.7411C42.3938 22.9735 42.4434 23.2224 42.4434 23.4739C42.4434 24.533 41.5869 25.3895 40.5295 25.3895Z" fill="white"/>
<path d="M31.9877 37.3291C34.9348 37.3291 37.324 34.9399 37.324 31.9928C37.324 29.0456 34.9348 26.6565 31.9877 26.6565C29.0405 26.6565 26.6514 29.0456 26.6514 31.9928C26.6514 34.9399 29.0405 37.3291 31.9877 37.3291Z" fill="white"/>
</svg>
