<svg width="36" height="37" viewBox="0 0 36 37" fill="none" xmlns="http://www.w3.org/2000/svg">
<path d="M35.8841 10.6433C35.8639 9.12919 35.5805 7.63016 35.0464 6.21324C34.5833 5.01807 33.876 3.93265 32.9697 3.02632C32.0634 2.11998 30.9779 1.41267 29.7828 0.949578C28.3841 0.424526 26.9064 0.14062 25.4127 0.109951C23.4896 0.0239895 22.8798 0 17.998 0C13.1162 0 12.4904 1.34051e-07 10.5813 0.109951C9.08828 0.140846 7.61131 0.424747 6.21324 0.949578C5.01789 1.41235 3.93229 2.11955 3.02592 3.02592C2.11955 3.93229 1.41235 5.01789 0.949578 6.21324C0.423474 7.61088 0.140184 9.08818 0.11195 10.5813C0.0259884 12.5064 0 13.1162 0 17.998C0 22.8798 -1.48945e-08 23.5036 0.11195 25.4147C0.141937 26.91 0.423811 28.3854 0.949578 29.7868C1.41313 30.9818 2.12085 32.0669 3.02753 32.9729C3.9342 33.8789 5.0199 34.5858 6.21524 35.0484C7.60949 35.5946 9.08671 35.8988 10.5833 35.948C12.5084 36.034 13.1182 36.06 18 36.06C22.8818 36.06 23.5076 36.06 25.4167 35.948C26.9103 35.9186 28.3881 35.6354 29.7868 35.1104C30.9816 34.6468 32.0668 33.9393 32.973 33.033C33.8793 32.1267 34.5868 31.0416 35.0504 29.8467C35.5762 28.4474 35.8581 26.972 35.888 25.4747C35.974 23.5515 36 22.9418 36 18.058C35.996 13.1761 35.996 12.5564 35.8841 10.6433V10.6433ZM17.986 27.2299C12.8803 27.2299 8.74411 23.0937 8.74411 17.988C8.74411 12.8823 12.8803 8.74611 17.986 8.74611C20.4371 8.74611 22.7878 9.71981 24.521 11.453C26.2542 13.1862 27.2279 15.5369 27.2279 17.988C27.2279 20.4391 26.2542 22.7898 24.521 24.523C22.7878 26.2562 20.4371 27.2299 17.986 27.2299V27.2299ZM27.5957 10.5593C27.3127 10.5596 27.0323 10.504 26.7707 10.3958C26.5091 10.2876 26.2715 10.1289 26.0713 9.9287C25.8711 9.72853 25.7124 9.49085 25.6042 9.22927C25.496 8.96769 25.4404 8.68734 25.4407 8.40426C25.4407 8.12139 25.4964 7.84129 25.6047 7.57995C25.7129 7.31861 25.8716 7.08115 26.0716 6.88113C26.2716 6.6811 26.5091 6.52244 26.7704 6.41419C27.0318 6.30594 27.3119 6.25022 27.5947 6.25022C27.8776 6.25022 28.1577 6.30594 28.4191 6.41419C28.6804 6.52244 28.9179 6.6811 29.1179 6.88113C29.3179 7.08115 29.4766 7.31861 29.5848 7.57995C29.6931 7.84129 29.7488 8.12139 29.7488 8.40426C29.7488 9.59573 28.7852 10.5593 27.5957 10.5593Z" fill="black"/>
<path d="M17.986 23.9915C21.3015 23.9915 23.9893 21.3037 23.9893 17.9882C23.9893 14.6726 21.3015 11.9849 17.986 11.9849C14.6704 11.9849 11.9827 14.6726 11.9827 17.9882C11.9827 21.3037 14.6704 23.9915 17.986 23.9915Z" fill="black"/>
</svg>
