<svg width="80" height="82" viewBox="0 0 80 82" fill="none" xmlns="http://www.w3.org/2000/svg">
<mask id="mask0_9_4" style="mask-type:alpha" maskUnits="userSpaceOnUse" x="0" y="0" width="80" height="82">
<path d="M74.3611 18.2787C60.4094 -4.47261 27.399 -6.22804 10.7378 14.3765C5.06512 21.3923 1.08946 29.785 0 38.8454C0 38.8454 1.68549 37.6981 2.69627 37.1885C2.37388 39.2908 2.21268 41.4151 2.21395 43.5427C2.21395 63.6245 17.8715 82.0199 38.5121 81.6094C26.4258 69.9115 18.7419 51.1349 25.1684 34.728C26.8511 30.4327 28.9688 27.5858 32.5899 24.7873C37.7382 20.8082 45.7334 20.1816 51.2434 23.7721C53.8726 25.4667 55.7641 28.1162 56.5303 31.1785C57.2966 34.2408 56.8799 37.4843 55.3655 40.2453C55.934 40.1666 60.3821 53.8943 56.8414 49.7851C53.2164 45.5796 47.9506 43.119 43.004 40.9215C41.3179 40.1722 39.9996 39.162 38.5116 38.1346C38.4656 39.0487 38.253 39.9654 38.2022 40.8831C37.6916 50.3765 40.3418 58.4901 49.2453 62.8359C60.4457 68.3028 72.4907 61.9571 77.2544 50.9983C82.018 40.0394 80.2834 27.937 74.3611 18.2787ZM36.9596 16.8344C36.9495 16.8438 36.9389 16.8525 36.9278 16.8605C36.6515 17.0967 36.332 17.2751 35.9876 17.3859C35.6431 17.4967 35.2806 17.5376 34.9206 17.5062C34.5606 17.4748 34.2102 17.3719 33.8895 17.203C33.5687 17.0343 33.2839 16.8031 33.0512 16.5227C33.0416 16.5103 33.0311 16.4987 33.0198 16.4877C32.6796 16.0772 32.4617 15.5771 32.3914 15.0455C32.3212 14.514 32.4017 13.9733 32.6233 13.4864C32.845 12.9996 33.1988 12.5868 33.6433 12.2963C34.0877 12.0058 34.6044 11.8496 35.1332 11.8459C35.54 11.85 35.9414 11.9425 36.3099 12.1173C36.6786 12.2922 37.0058 12.5452 37.2697 12.8593C37.747 13.4287 37.9822 14.1669 37.9239 14.9119C37.8657 15.6569 37.5188 16.3482 36.9589 16.8344H36.9596ZM46.4815 14.3824C46.4717 14.3937 46.4612 14.4045 46.4499 14.4144C45.8904 14.891 45.1673 15.1228 44.4393 15.0589C43.7113 14.995 43.0381 14.6406 42.5676 14.0737C42.5576 14.0642 42.5489 14.0535 42.5418 14.0416C42.202 13.6315 41.9841 13.1317 41.9136 12.6008C41.8433 12.0698 41.9233 11.5295 42.1442 11.0429C42.3652 10.5563 42.7179 10.1434 43.1615 9.85246C43.6052 9.56152 44.1212 9.40452 44.6495 9.39977C45.0565 9.40306 45.458 9.4953 45.8266 9.67018C46.1954 9.84505 46.5225 10.0985 46.7859 10.4132C47.2641 10.9806 47.5007 11.7174 47.4437 12.4616C47.3865 13.2058 47.0405 13.8966 46.4815 14.3824ZM55.7136 18.372C55.705 18.3806 55.6935 18.3894 55.6848 18.3981C55.4081 18.6349 55.088 18.8141 54.7429 18.9254C54.3978 19.0368 54.0345 19.078 53.6738 19.047C53.313 19.0158 52.9619 18.9129 52.6402 18.7441C52.3187 18.5754 52.033 18.344 51.7996 18.0632C51.7928 18.053 51.785 18.0432 51.7766 18.0341C51.4352 17.6243 51.2159 17.1242 51.1444 16.5926C51.0729 16.061 51.1522 15.5197 51.3731 15.0321C51.5939 14.5446 51.947 14.1308 52.3912 13.8394C52.8356 13.5479 53.3524 13.3907 53.8814 13.3864C54.2886 13.3887 54.6905 13.4805 55.0594 13.6555C55.4282 13.8305 55.7552 14.0844 56.0179 14.3999C56.4961 14.9679 56.7327 15.705 56.6756 16.4497C56.6185 17.1944 56.2726 17.8857 55.7136 18.372Z" fill="#8B3232"/>
</mask>
<g mask="url(#mask0_9_4)">
<path d="M74.3611 18.2787C60.4094 -4.47261 27.399 -6.22804 10.7378 14.3765C5.06512 21.3923 1.08946 29.785 0 38.8454C0 38.8454 1.68549 37.6981 2.69627 37.1885C2.37388 39.2908 2.21268 41.4151 2.21395 43.5427C2.21395 63.6245 17.8715 82.0199 38.5121 81.6094C26.4258 69.9115 18.7419 51.1349 25.1684 34.728C26.8511 30.4327 28.9688 27.5858 32.5899 24.7873C37.7382 20.8082 45.7334 20.1816 51.2434 23.7721C53.8726 25.4667 55.7641 28.1162 56.5303 31.1785C57.2966 34.2408 56.8799 37.4843 55.3655 40.2453C55.934 40.1666 60.3821 53.8943 56.8414 49.7851C53.2164 45.5796 47.9506 43.119 43.004 40.9215C41.3179 40.1722 39.9996 39.162 38.5116 38.1346C38.4656 39.0487 38.253 39.9654 38.2022 40.8831C37.6916 50.3765 40.3418 58.4901 49.2453 62.8359C60.4457 68.3028 72.4907 61.9571 77.2544 50.9983C82.018 40.0394 80.2834 27.937 74.3611 18.2787ZM36.9596 16.8344C36.9495 16.8438 36.9389 16.8525 36.9278 16.8605C36.6515 17.0967 36.332 17.2751 35.9876 17.3859C35.6431 17.4967 35.2806 17.5376 34.9206 17.5062C34.5606 17.4748 34.2102 17.3719 33.8895 17.203C33.5687 17.0343 33.2839 16.8031 33.0512 16.5227C33.0416 16.5103 33.0311 16.4987 33.0198 16.4877C32.6796 16.0772 32.4617 15.5771 32.3914 15.0455C32.3212 14.514 32.4017 13.9733 32.6233 13.4864C32.845 12.9996 33.1988 12.5868 33.6433 12.2963C34.0877 12.0058 34.6044 11.8496 35.1332 11.8459C35.54 11.85 35.9414 11.9425 36.3099 12.1173C36.6786 12.2922 37.0058 12.5452 37.2697 12.8593C37.747 13.4287 37.9822 14.1669 37.9239 14.9119C37.8657 15.6569 37.5188 16.3482 36.9589 16.8344H36.9596ZM46.4815 14.3824C46.4717 14.3937 46.4612 14.4045 46.4499 14.4144C45.8904 14.891 45.1673 15.1228 44.4393 15.0589C43.7113 14.995 43.0381 14.6406 42.5676 14.0737C42.5576 14.0642 42.5489 14.0535 42.5418 14.0416C42.202 13.6315 41.9841 13.1317 41.9136 12.6008C41.8433 12.0698 41.9233 11.5295 42.1442 11.0429C42.3652 10.5563 42.7179 10.1434 43.1615 9.85246C43.6052 9.56152 44.1212 9.40452 44.6495 9.39977C45.0565 9.40306 45.458 9.4953 45.8266 9.67018C46.1954 9.84505 46.5225 10.0985 46.7859 10.4132C47.2641 10.9806 47.5007 11.7174 47.4437 12.4616C47.3865 13.2058 47.0405 13.8966 46.4815 14.3824ZM55.7136 18.372C55.705 18.3806 55.6935 18.3894 55.6848 18.3981C55.4081 18.6349 55.088 18.8141 54.7429 18.9254C54.3978 19.0368 54.0345 19.078 53.6738 19.047C53.313 19.0158 52.9619 18.9129 52.6402 18.7441C52.3187 18.5754 52.033 18.344 51.7996 18.0632C51.7928 18.053 51.785 18.0432 51.7766 18.0341C51.4352 17.6243 51.2159 17.1242 51.1444 16.5926C51.0729 16.061 51.1522 15.5197 51.3731 15.0321C51.5939 14.5446 51.947 14.1308 52.3912 13.8394C52.8356 13.5479 53.3524 13.3907 53.8814 13.3864C54.2886 13.3887 54.6905 13.4805 55.0594 13.6555C55.4282 13.8305 55.7552 14.0844 56.0179 14.3999C56.4961 14.9679 56.7327 15.705 56.6756 16.4497C56.6185 17.1944 56.2726 17.8857 55.7136 18.372Z" fill="#8B3232"/>
</g>
<path d="M49.5834 35.0386C49.7172 35.082 50.7289 35.3834 51.2796 35.534C51.6929 35.6466 51.5797 35.2941 51.5909 35.02C51.6223 34.2216 51.9126 33.1433 51.5033 32.3967C50.8562 31.2801 49.428 31.245 48.3308 30.7549C48.1263 30.6649 47.9249 30.6948 47.8728 30.9047C47.64 31.8421 47.5062 33.0587 48.1416 33.9184C48.4579 34.4514 48.9725 34.8512 49.5834 35.0386Z" fill="#8B3232"/>
</svg>
