<svg width="64" height="64" viewBox="0 0 64 64" fill="none" xmlns="http://www.w3.org/2000/svg">
<circle cx="32" cy="32" r="32" fill="#FF7171"/>
<path d="M42.3189 21.8915C42.1014 21.779 41.8896 21.6557 41.6844 21.522C41.0882 21.1278 40.5415 20.6633 40.0561 20.1386C38.8402 18.7479 38.3862 17.3373 38.2201 16.3505H38.2258C38.0869 15.5299 38.1442 15 38.1542 15H32.6189V36.4006C32.6189 36.687 32.6189 36.972 32.6075 37.2527C32.6075 37.2871 32.6032 37.3186 32.6017 37.3573C32.6017 37.3716 32.6017 37.3888 32.5974 37.4045V37.4174C32.5393 38.1851 32.2934 38.9267 31.8813 39.577C31.4693 40.2273 30.9037 40.7664 30.2344 41.1467C29.5361 41.544 28.7463 41.7523 27.943 41.7511C25.3651 41.7511 23.2741 39.6487 23.2741 37.0522C23.2741 34.4543 25.3651 32.3519 27.943 32.3519C28.4313 32.3519 28.9168 32.4293 29.3808 32.5811L29.388 26.9441C27.9788 26.7623 26.5472 26.8746 25.1835 27.2739C23.8199 27.6733 22.5539 28.3509 21.4653 29.2642C20.5113 30.0928 19.7092 31.0815 19.0951 32.1858C18.8617 32.5882 17.9795 34.208 17.8735 36.8345C17.8062 38.324 18.2545 39.8707 18.4679 40.508V40.5223C18.601 40.8975 19.1223 42.1808 19.9702 43.262C20.6539 44.1299 21.4617 44.8924 22.3676 45.5248V45.5105L22.3805 45.5248C25.0586 47.3437 28.0303 47.2248 28.0303 47.2248C28.5445 47.2033 30.2673 47.2248 32.2236 46.2982C34.3934 45.2699 35.6279 43.7389 35.6279 43.7389C36.4171 42.824 37.0448 41.7813 37.4839 40.6555C37.9852 39.3379 38.1513 37.7597 38.1513 37.1296V25.7741C38.2186 25.8142 39.1137 26.4056 39.1137 26.4056C39.1137 26.4056 40.4027 27.232 42.412 27.769C43.8527 28.1514 45.7961 28.2331 45.7961 28.2331V22.7379C45.1159 22.8124 43.7338 22.5976 42.3174 21.8929L42.3189 21.8915Z" fill="white"/>
</svg>
